<svg version="1.1" viewBox="0.0 0.0 960.0 720.0" fill="none" stroke="none" stroke-linecap="square" stroke-miterlimit="10" xmlns:xlink="http://www.w3.org/1999/xlink" xmlns="http://www.w3.org/2000/svg"><clipPath id="g122a2e01048_0_8.0"><path d="m0 0l960.0 0l0 720.0l-960.0 0l0 -720.0z" clip-rule="nonzero"/></clipPath><g clip-path="url(#g122a2e01048_0_8.0)"><path fill="#ffffff" d="m0 0l960.0 0l0 720.0l-960.0 0z" fill-rule="evenodd"/><path fill="#a4c2f4" d="m123.1063 416.0323l0 0c0 -133.12238 107.917 -241.03937 241.03937 -241.03937l0 0c63.927612 0 125.23694 25.395142 170.44058 70.598785c45.203674 45.203644 70.598816 106.51297 70.598816 170.44058l0 0c0 133.12238 -107.91702 241.03937 -241.0394 241.03937l0 0c-133.12236 0 -241.03937 -107.91699 -241.03937 -241.03937z" fill-rule="evenodd"/><path stroke="#595959" stroke-width="1.0" stroke-linejoin="round" stroke-linecap="butt" d="m123.1063 416.0323l0 0c0 -133.12238 107.917 -241.03937 241.03937 -241.03937l0 0c63.927612 0 125.23694 25.395142 170.44058 70.598785c45.203674 45.203644 70.598816 106.51297 70.598816 170.44058l0 0c0 133.12238 -107.91702 241.03937 -241.0394 241.03937l0 0c-133.12236 0 -241.03937 -107.91699 -241.03937 -241.03937z" fill-rule="evenodd"/><path fill="#000000" d="m596.2456 148.70998l0 0c0 -8.140762 6.599365 -14.740158 14.740112 -14.740158l0 0c3.9093628 0 7.6585693 1.5529785 10.422852 4.3172913c2.7643433 2.764328 4.317322 6.5135345 4.317322 10.422867l0 0c0 8.140762 -6.599365 14.740158 -14.740173 14.740158l0 0c-8.140747 0 -14.740112 -6.5993958 -14.740112 -14.740158z" fill-rule="evenodd"/><path stroke="#595959" stroke-width="1.0" stroke-linejoin="round" stroke-linecap="butt" d="m596.2456 148.70998l0 0c0 -8.140762 6.599365 -14.740158 14.740112 -14.740158l0 0c3.9093628 0 7.6585693 1.5529785 10.422852 4.3172913c2.7643433 2.764328 4.317322 6.5135345 4.317322 10.422867l0 0c0 8.140762 -6.599365 14.740158 -14.740173 14.740158l0 0c-8.140747 0 -14.740112 -6.5993958 -14.740112 -14.740158z" fill-rule="evenodd"/><path fill="#000000" fill-opacity="0.0" d="m370.55475 426.28464l164.0315 -180.69293" fill-rule="evenodd"/><path stroke="#000000" stroke-width="3.0" stroke-linejoin="round" stroke-linecap="butt" d="m370.55475 426.2846l151.93286 -167.36536" fill-rule="evenodd"/><path fill="#000000" stroke="#000000" stroke-width="3.0" stroke-linecap="butt" d="m526.15656 262.24988l5.4818726 -13.410904l-12.819702 6.7496643z" fill-rule="evenodd"/><path fill="#000000" fill-opacity="0.0" d="m534.58624 245.5917l70.5827 -89.79527" fill-rule="evenodd"/><path stroke="#000000" stroke-width="3.0" stroke-linejoin="round" stroke-linecap="butt" d="m534.58624 245.59172l59.459045 -75.6438" fill-rule="evenodd"/><path fill="#000000" stroke="#000000" stroke-width="3.0" stroke-linecap="butt" d="m597.94104 173.01013l4.517578 -13.765686l-12.309082 7.641266z" fill-rule="evenodd"/><path fill="#000000" fill-opacity="0.0" d="m189.3774 271.07562l119.2126 0l0 111.49606l-119.2126 0z" fill-rule="evenodd"/><path fill="#000000" d="m204.01802 353.03564l0 -54.40625l10.84375 0l12.875 38.515625q1.78125 5.390625 2.59375 8.0625q0.921875 -2.96875 2.890625 -8.71875l13.03125 -37.859375l9.6875 0l0 54.40625l-6.9375 0l0 -45.53125l-15.8125 45.53125l-6.5 0l-15.734375 -46.3125l0 46.3125l-6.9375 0z" fill-rule="nonzero"/><path fill="#000000" fill-opacity="0.0" d="m382.1922 287.23294l70.58267 0l0 79.18109l-70.58267 0z" fill-rule="evenodd"/><path fill="#000000" d="m395.0672 343.59293l0 -35.3125l15.65625 0q4.71875 0 7.171875 0.953125q2.46875 0.953125 3.9375 3.359375q1.46875 2.40625 1.46875 5.328125q0 3.75 -2.4375 6.328125q-2.4375 2.578125 -7.515625 3.28125q1.859375 0.890625 2.828125 1.75q2.046875 1.890625 3.875 4.703125l6.140625 9.609375l-5.875 0l-4.671875 -7.34375q-2.046875 -3.1875 -3.375 -4.859375q-1.328125 -1.6875 -2.375 -2.359375q-1.046875 -0.6875 -2.125 -0.953125q-0.796875 -0.171875 -2.609375 -0.171875l-5.421875 0l0 15.6875l-4.671875 0zm4.671875 -19.71875l10.046875 0q3.203125 0 5.0 -0.65625q1.8125 -0.671875 2.75 -2.125q0.953125 -1.46875 0.953125 -3.171875q0 -2.515625 -1.828125 -4.125q-1.8125 -1.609375 -5.75 -1.609375l-11.171875 0l0 11.6875z" fill-rule="nonzero"/><path fill="#000000" fill-opacity="0.0" d="m513.90295 139.14961l48.881897 0l0 69.480316l-48.881897 0z" fill-rule="evenodd"/><path fill="#000000" d="m525.6217 187.8296l0 -29.578125l3.640625 0l0 10.609375q2.546875 -2.953125 6.421875 -2.953125q2.375 0 4.125 0.953125q1.765625 0.9375 2.515625 2.59375q0.765625 1.640625 0.765625 4.796875l0 13.578125l-3.640625 0l0 -13.578125q0 -2.734375 -1.1875 -3.96875q-1.171875 -1.234375 -3.328125 -1.234375q-1.625 0 -3.046875 0.84375q-1.421875 0.828125 -2.03125 2.265625q-0.59375 1.421875 -0.59375 3.953125l0 11.71875l-3.640625 0z" fill-rule="nonzero"/><path fill="#000000" fill-opacity="0.0" d="m605.19775 62.928677l70.58264 0l0 67.87401l-70.58264 0z" fill-rule="evenodd"/><path fill="#000000" d="m616.8384 110.328674l0 -20.75l3.140625 0l0 2.921875q0.984375 -1.53125 2.59375 -2.453125q1.625 -0.9375 3.703125 -0.9375q2.296875 0 3.765625 0.96875q1.484375 0.953125 2.09375 2.671875q2.453125 -3.640625 6.40625 -3.640625q3.078125 0 4.734375 1.71875q1.671875 1.703125 1.671875 5.265625l0 14.234375l-3.5 0l0 -13.0625q0 -2.109375 -0.34375 -3.03125q-0.34375 -0.9375 -1.25 -1.5q-0.890625 -0.578125 -2.09375 -0.578125q-2.1875 0 -3.640625 1.46875q-1.4375 1.453125 -1.4375 4.65625l0 12.046875l-3.515625 0l0 -13.484375q0 -2.34375 -0.859375 -3.515625q-0.859375 -1.171875 -2.8125 -1.171875q-1.484375 0 -2.75 0.78125q-1.265625 0.78125 -1.828125 2.296875q-0.5625 1.5 -0.5625 4.328125l0 10.765625l-3.515625 0z" fill-rule="nonzero"/><path fill="#000000" fill-opacity="0.0" d="m415.042 469.0971l240.34644 -266.2362" fill-rule="evenodd"/><path stroke="#ff0000" stroke-width="3.0" stroke-linejoin="round" stroke-linecap="butt" d="m415.042 469.0971l240.34644 -266.2362" fill-rule="evenodd"/><path fill="#000000" fill-opacity="0.0" d="m649.1706 180.83464l11.401611 41.448822" fill-rule="evenodd"/><path stroke="#ff0000" stroke-width="3.0" stroke-linejoin="round" stroke-linecap="butt" d="m649.1706 180.83464l11.401611 41.448822" fill-rule="evenodd"/><path fill="#000000" fill-opacity="0.0" d="m408.07874 448.57217l11.401581 41.448822" fill-rule="evenodd"/><path stroke="#ff0000" stroke-width="3.0" stroke-linejoin="round" stroke-linecap="butt" d="m408.07874 448.57217l11.401581 41.448822" fill-rule="evenodd"/><path fill="#000000" fill-opacity="0.0" d="m596.54645 264.36746l240.34644 0l0 67.87399l-240.34644 0z" fill-rule="evenodd"/><path fill="#ff0000" d="m608.1402 311.76746l0 -20.75l3.171875 0l0 3.15625q1.203125 -2.21875 2.234375 -2.921875q1.03125 -0.703125 2.25 -0.703125q1.78125 0 3.625 1.140625l-1.21875 3.265625q-1.28125 -0.765625 -2.578125 -0.765625q-1.15625 0 -2.078125 0.703125q-0.90625 0.6875 -1.296875 1.90625q-0.59375 1.875 -0.59375 4.109375l0 10.859375l-3.515625 0zm42.98047 -16.84375l-18.90625 0l0 -3.28125l18.90625 0l0 3.28125zm0 8.703125l-18.90625 0l0 -3.28125l18.90625 0l0 3.28125zm16.472656 8.140625l0 -28.640625l12.703125 0q3.828125 0 5.8125 0.78125q2.0 0.765625 3.1875 2.71875q1.1875 1.953125 1.1875 4.3125q0 3.046875 -1.96875 5.140625q-1.96875 2.09375 -6.09375 2.65625q1.5 0.71875 2.28125 1.421875q1.671875 1.53125 3.15625 3.8125l4.96875 7.796875l-4.765625 0l-3.78125 -5.953125q-1.65625 -2.578125 -2.734375 -3.9375q-1.078125 -1.375 -1.9375 -1.921875q-0.84375 -0.546875 -1.71875 -0.765625q-0.640625 -0.140625 -2.109375 -0.140625l-4.390625 0l0 12.71875l-3.796875 0zm3.796875 -16.0l8.140625 0q2.59375 0 4.0625 -0.53125q1.46875 -0.546875 2.21875 -1.71875q0.765625 -1.1875 0.765625 -2.578125q0 -2.03125 -1.46875 -3.328125q-1.46875 -1.3125 -4.65625 -1.3125l-9.0625 0l0 9.46875zm31.964844 11.375l0 -7.859375l-7.78125 0l0 -3.28125l7.78125 0l0 -7.796875l3.328125 0l0 7.796875l7.796875 0l0 3.28125l-7.796875 0l0 7.859375l-3.328125 0zm15.984375 4.625l0 -28.640625l3.515625 0l0 10.28125q2.453125 -2.859375 6.203125 -2.859375q2.3125 0 4.0 0.921875q1.703125 0.90625 2.4375 2.515625q0.734375 1.59375 0.734375 4.640625l0 13.140625l-3.515625 0l0 -13.140625q0 -2.640625 -1.140625 -3.84375q-1.140625 -1.203125 -3.234375 -1.203125q-1.5625 0 -2.9375 0.8125q-1.375 0.8125 -1.96875 2.203125q-0.578125 1.375 -0.578125 3.828125l0 11.34375l-3.515625 0z" fill-rule="nonzero"/></g></svg>